<svg width="800" height="800" viewBox="0 0 800 800" fill="none" xmlns="http://www.w3.org/2000/svg">
<g clip-path="url(#clip0_3290_29831)">
<path d="M800 400C800 622.686 618.571 800 400 800C181.448 800 0 622.686 0 400C0 177.314 177.314 0 400 0C622.686 0 800 177.314 800 400Z" fill="#88C9F9"/>
<path d="M395.991 583.985C395.991 575.985 391.991 571.986 383.991 567.986C359.992 559.986 335.992 559.986 315.993 539.967C311.993 531.968 311.993 523.968 307.993 515.968C299.993 507.968 279.994 503.968 267.994 499.968H187.996C175.997 495.969 167.997 479.969 159.997 467.969C159.997 463.97 159.997 455.951 151.997 455.951C143.997 451.97 135.998 459.97 127.998 455.951C123.998 451.97 123.998 447.951 123.998 443.97C123.998 431.951 131.998 419.952 139.998 411.952C151.997 403.952 163.997 415.952 175.997 415.952C179.996 415.952 179.996 415.952 183.996 419.952C195.996 423.952 199.996 439.951 199.996 451.97V459.97C199.996 463.97 203.996 463.97 207.996 463.97C211.996 443.97 211.996 423.952 215.995 403.971C215.995 379.972 239.995 355.953 259.994 347.973C267.994 343.992 271.994 351.992 279.994 347.973C303.993 339.973 363.991 315.974 351.992 283.994C343.992 255.975 319.993 228.014 287.993 231.995C279.994 236.014 275.994 239.995 267.994 244.014C255.994 252.013 231.995 276.013 219.995 276.013C199.996 272.013 199.996 244.014 203.996 231.995C207.996 215.995 243.995 164.016 267.994 172.016L283.994 188.015C291.993 192.015 303.993 192.015 315.993 192.015C319.993 192.015 323.993 192.015 327.992 188.015C331.992 184.015 331.992 184.015 331.992 180.016C331.992 168.016 319.993 155.997 311.993 147.997C303.993 139.998 291.993 131.998 279.994 128.017C239.995 115.998 175.997 131.998 143.997 160.016C111.998 188.015 87.9989 236.014 71.9994 276.013C63.9996 300.012 55.9998 331.992 51.9999 360.011C48 380.01 44.0001 396.009 55.9998 415.99C67.9995 439.989 91.9988 464.008 115.998 479.988C131.998 491.988 163.997 491.988 179.996 511.987C191.996 528.006 187.996 547.986 187.996 567.986C187.996 591.985 203.996 611.984 211.996 631.965C215.995 643.984 219.995 659.983 223.995 671.983C223.995 675.983 227.995 699.982 227.995 703.982C251.994 715.982 271.994 728 299.993 736C303.993 736 319.993 711.982 319.993 707.982C331.992 695.982 339.992 679.983 351.992 671.983C359.992 667.983 367.991 663.983 375.991 655.964C383.991 647.964 387.991 631.965 391.991 619.965C395.991 611.984 399.99 595.985 395.991 583.985ZM403.99 215.995C407.99 215.995 411.99 211.996 419.99 207.996C431.99 199.996 444.008 187.996 455.989 179.996C468.008 171.997 480.007 159.997 488.007 151.997C500.007 143.997 508.007 127.998 512.006 115.979C516.006 107.979 528.025 91.9798 524.006 79.9802C520.006 71.9804 500.007 67.9805 492.007 63.9806C459.989 55.9808 431.99 52 399.99 52C387.991 52 371.991 55.9808 367.991 67.9996C363.991 87.999 379.991 83.9991 395.991 87.999C395.991 87.999 399.99 119.998 399.99 123.998C403.99 144.016 391.991 155.997 391.991 175.997C391.991 187.996 391.991 207.996 399.99 215.995H403.99ZM739.981 495.988C744 487.988 744 475.988 747.981 467.988C752 447.97 752 427.99 752 407.99C752 367.991 747.981 328.011 736 291.993C728.001 279.994 723.982 267.994 719.982 255.975C711.982 235.995 699.982 215.976 683.983 199.996C667.983 179.996 647.965 123.998 611.985 139.998C599.985 144.016 591.985 160.016 583.985 168.016L559.986 204.015C555.967 208.015 551.986 216.014 555.967 220.014C555.967 224.014 559.986 224.014 563.967 224.014C571.967 228.033 575.986 228.033 583.985 232.014C587.985 232.014 591.985 236.033 587.985 240.014C587.985 240.014 587.985 244.033 583.985 244.033C563.967 264.032 543.987 280.032 523.987 300.012C519.987 304.012 515.987 312.012 515.987 316.012C515.987 320.012 519.987 320.012 519.987 324.011C519.987 328.03 515.987 328.03 511.987 332.011C503.988 336.03 495.988 340.011 491.988 344.03C487.988 352.03 491.988 364.029 487.988 372.029C483.988 392.029 471.969 408.028 463.97 428.028C455.97 440.008 451.989 452.027 443.989 464.027C443.989 480.026 439.97 492.026 447.97 504.026C467.989 532.025 503.969 516.025 531.968 528.044C539.968 532.025 547.967 532.025 551.986 540.025C563.967 552.043 563.967 572.043 567.986 584.042C571.967 600.042 575.986 616.041 583.985 632.041C587.985 652.059 595.985 672.059 599.985 688.04C636.003 660.04 667.983 628.06 691.983 588.042C715.982 559.986 728.001 528.006 739.981 495.988Z" fill="#5C913B"/>
</g>
<defs>
<clipPath id="clip0_3290_29831">
<rect width="800" height="800" fill="white"/>
</clipPath>
</defs>
</svg>
